<?xml version="1.0" encoding="utf-8"?>
<!-- Generator: Adobe Illustrator 16.0.0, SVG Export Plug-In . SVG Version: 6.00 Build 0)  -->
<!DOCTYPE svg PUBLIC "-//W3C//DTD SVG 1.1//EN" "http://www.w3.org/Graphics/SVG/1.1/DTD/svg11.dtd">
<svg version="1.1" id="Layer_1" xmlns="http://www.w3.org/2000/svg" xmlns:xlink="http://www.w3.org/1999/xlink" x="0px" y="0px"
	 width="152.993px" height="127.494px" viewBox="0 0 152.993 127.494" enable-background="new 0 0 152.993 127.494"
	 xml:space="preserve">
<path fill="none" stroke="#000000" stroke-width="10" stroke-linecap="round" stroke-linejoin="round" stroke-miterlimit="10" d="
	M137.907,36.907c0.165,0.5,0.479,1,0.479,1.5c0.025,21.333,0.253,42.67-0.081,63.998c-0.155,9.938-8.443,15.298-15.9,15.188
	c-30.159-0.447-60.331-0.23-90.497-0.146c-5.639,0.016-9.446-2.229-12.634-6.949c-2.76-4.088-2.207-8.41-2.257-12.592
	c-0.242-20.331-0.109-40.666-0.109-60.999 M134.403,35.7l10.674-0.084c0-5.385,1.071-12.085-0.453-17.125
	c-2.474-8.18-9.879-9.656-17.717-9.628c-29.666,0.107-59.333,0.017-89,0.065c-5.833,0.01-11.672,0.21-17.499,0.505
	c-6.094,0.31-11.925,6.462-11.993,12.474c-0.043,3.833-0.029,7.667,0.018,11.5c0.006,0.49,0.368,0.976,0.781,2
	c4.36,0,9.027,0,13.693,0c36.333,0,72.666-0.015,109.001,0.043c1.834,0.002,3.665,0.624,5.5,0.957 M54.239,67.907
	c0,4.908,4.301,6.794,10.669,6.576c8.823-0.303,17.665-0.055,26.498-0.086c4.4-0.018,8-3.213,8-6.99c0-4.273-3.081-6.988-8-6.996
	c-8.834-0.014-17.667-0.004-26.5-0.004C58.972,60.407,54.239,60.404,54.239,67.907"/>
</svg>
