<?xml version="1.0" encoding="utf-8"?>
<!-- Generator: Adobe Illustrator 16.0.0, SVG Export Plug-In . SVG Version: 6.00 Build 0)  -->
<!DOCTYPE svg PUBLIC "-//W3C//DTD SVG 1.1//EN" "http://www.w3.org/Graphics/SVG/1.1/DTD/svg11.dtd">
<svg version="1.1" id="Layer_1" xmlns="http://www.w3.org/2000/svg" xmlns:xlink="http://www.w3.org/1999/xlink" x="0px" y="0px"
	 width="193.49px" height="266.987px" viewBox="0 0 193.49 266.987" enable-background="new 0 0 193.49 266.987"
	 xml:space="preserve">
<path fill="none" stroke="#000000" stroke-width="10" stroke-miterlimit="10" d="M186.902,246.898c0,6.627-5.373,12-12,12h-154
	c-6.627,0-12-5.373-12-12v-213c0-6.627,5.373-12,12-12h154c6.627,0,12,5.373,12,12V246.898z"/>
<path stroke="#000000" stroke-width="10" stroke-miterlimit="10" d="M154.902,27.195c0,3.803-5.373,6.703-12,6.703h-91
	c-6.627,0-12-2.9-12-6.703V16.291c0-3.803,5.373-6.393,12-6.393h91c6.627,0,12,2.589,12,6.393V27.195z"/>
<line fill="none" stroke="#000000" stroke-width="28" stroke-miterlimit="10" x1="51.152" y1="134.648" x2="80.902" y2="164.398"/>
<line fill="none" stroke="#000000" stroke-width="28" stroke-miterlimit="10" x1="73.152" y1="176.648" x2="146.569" y2="103.231"/>
<g>
</g>
<g>
</g>
<g>
</g>
<g>
</g>
<g>
</g>
<g>
</g>
<g>
</g>
<g>
</g>
<g>
</g>
<g>
</g>
<g>
</g>
<g>
</g>
<g>
</g>
<g>
</g>
<g>
</g>
</svg>
