<svg xmlns="http://www.w3.org/2000/svg" version="1.1" x="0" y="0" viewBox="0 0 439 105.5" enable-background="new 0 0 439 105.5" xml:space="preserve"><path fill-rule="evenodd" clip-rule="evenodd" fill="#15A9E7" d="M149.5 10.5c7.8-1.8 13.9-0.7 25 2 0 2.7 0 5.3 0 8 -0.3 0-0.7 0-1 0 -21.1-9.3-48.5 3.1-41 33 4.4 17.8 23.6 23.2 42 15 0 5.5 0.3 5.8-3 8 -27.5 12-53.7-10.9-47-40C127.9 21.7 137.5 13.5 149.5 10.5zM187.5 11.5c2.7 0 5.3 0 8 0 0 9.7 0 19.3 0 29 11.7 0 23.3 0 35 0 0-9.7 0-19.3 0-29 2.7 0 5.3 0 8 0 0 22.3 0 44.7 0 67 -2.7 0-5.3 0-8 0 0-10.3 0-20.7 0-31 -11.7 0-23.3 0-35 0 0 10.3 0 20.7 0 31 -2.7 0-5.3 0-8 0C187.5 56.2 187.5 33.8 187.5 11.5zM249.5 11.5c7 0 14 0 21 0 0 2 0 4 0 6 -2.3 0-4.7 0-7 0 0.3 18.3 0.7 36.7 1 55 2 0 4 0 6 0 0 2 0 4 0 6 -7 0-14 0-21 0 0-2 0-4 0-6 2 0 4 0 6 0 0-18.3 0-36.7 0-55 -2 0-4 0-6 0C249.5 15.5 249.5 13.5 249.5 11.5zM400.5 11.5c11.3 0 22.7 0 34 0 0 2.3 0 4.7 0 7 -8.7 0-17.3 0-26 0 0 7.3 0 14.7 0 22 8 0 16 0 24 0 0 2.3 0 4.7 0 7 -8 0-16 0-24 0 0 8 0 16 0 24 9.3 0 18.7 0 28 0 0 2.3 0 4.7 0 7 -12 0-24 0-36 0C400.5 56.2 400.5 33.8 400.5 11.5zM72.5 11.5c18.1-0.8 33.9-1.5 39 11 4.5 12.4-3.2 22.2-13 24 7.3 10.7 14.7 21.3 22 32 -3.3 0-6.7 0-10 0 -4-12.8-12.2-29.3-30-29 0 9.7 0 19.3 0 29 -2.7 0-5.3 0-8 0C72.5 56.2 72.5 33.8 72.5 11.5zM97.5 19.5c3.6 1.7 4.4 2.3 6 6 1 3 1 6 0 9 -1 3.3-2.8 5.2-6 7 -5.7 0.3-11.3 0.7-17 1 0-8 0-16 0-24C86.2 18.8 91.8 19.2 97.5 19.5zM28.5 11.5c3 0.3 6 0.7 9 1 8.3 22 16.7 44 25 66 -3 0-6 0-9 0 -2.3-6.3-4.7-12.7-7-19 -9.7 0-19.3 0-29 0 -2 6.3-4 12.7-6 19 -3 0-6 0-9 0C11.2 56.2 19.8 33.8 28.5 11.5zM31.5 20.5c-3.7 10.7-7.3 21.3-11 32 7.7 0 15.3 0 23 0C39.5 41.8 35.5 31.2 31.5 20.5zM283.5 14.5l3 63 45 25c0 0 1.5 1.3 3 0l45-24 3-65 -48 27c0 0-1.8 1-3-1C331.5 39.3 283.5 14.5 283.5 14.5zM286.5 3.5l1 6 43 27C330.5 36.5 312.8 10.8 286.5 3.5zM379.5 3.5v7l-44 26C335.5 36.5 339.8 22.3 379.5 3.5z"/></svg>