<?xml version="1.0" encoding="utf-8"?>
<!-- Generator: Adobe Illustrator 16.0.0, SVG Export Plug-In . SVG Version: 6.00 Build 0)  -->
<!DOCTYPE svg PUBLIC "-//W3C//DTD SVG 1.1//EN" "http://www.w3.org/Graphics/SVG/1.1/DTD/svg11.dtd">
<svg version="1.1" id="Layer_1" xmlns="http://www.w3.org/2000/svg" xmlns:xlink="http://www.w3.org/1999/xlink" x="0px" y="0px"
	 width="389.28px" height="388px" viewBox="0 0 389.28 388" enable-background="new 0 0 389.28 388" xml:space="preserve">
<g>
	<g>
		<path fill="#FFFFFF" d="M355.115,5.638H34.079c-15.341,0-27.804,12.16-27.804,27.152v322.39c0,15.003,12.463,27.183,27.804,27.183
			h321.037c15.367,0,27.89-12.18,27.89-27.183V32.79C383.005,17.797,370.482,5.638,355.115,5.638z M118.005,326.656H62.128V146.873
			h55.876V326.656z M90.077,122.296c-17.905,0-32.402-14.52-32.402-32.407c0-17.869,14.497-32.387,32.402-32.387
			c17.866,0,32.383,14.519,32.383,32.387C122.46,107.776,107.943,122.296,90.077,122.296z M327.291,326.656h-55.837v-87.429
			c0-20.857-0.385-47.674-29.038-47.674c-29.078,0-33.531,22.715-33.531,46.166v88.938H153.05V146.873h53.603v24.563h0.743
			c7.456-14.134,25.685-29.039,52.867-29.039c56.582,0,67.028,37.237,67.028,85.642V326.656z"/>
	</g>
</g>
<g>
</g>
<g>
</g>
<g>
</g>
<g>
</g>
<g>
</g>
<g>
</g>
</svg>
