<?xml version="1.0" encoding="utf-8"?>
<!-- Generator: Adobe Illustrator 16.0.0, SVG Export Plug-In . SVG Version: 6.00 Build 0)  -->
<!DOCTYPE svg PUBLIC "-//W3C//DTD SVG 1.1//EN" "http://www.w3.org/Graphics/SVG/1.1/DTD/svg11.dtd">
<svg version="1.1" id="Capa_1" xmlns="http://www.w3.org/2000/svg" xmlns:xlink="http://www.w3.org/1999/xlink" x="0px" y="0px"
	 width="584px" height="511px" viewBox="189.5 23.5 584 511" enable-background="new 189.5 23.5 584 511" xml:space="preserve">
<g>
	<path fill="#FFFFFF" d="M741.203,32.62c-1.991,0-3.361,0-5.353,0.684c-0.685,0-1.368,0-1.368,0.685L569.104,98.534L407.773,35.98
		c-0.685,0-0.685,0-1.369-0.685c-3.361-0.684-8.092-1.991-14.814-1.991h-1.307l0,0c-7.407,0-14.129,1.369-20.851,4.046
		c-0.685,0-1.991,0.685-2.677,0.685L220.238,95.172c-16.805,6.723-20.851,21.536-20.167,29.565v381.17
		c0,1.991,0,10.083,6.037,16.121c3.361,3.361,8.091,5.353,12.76,5.353c2.676,0,6.037-0.685,8.713-1.992l163.323-63.86l155.978,60.5
		l4.046,1.369c3.361,1.368,9.398,2.677,18.175,2.677c0,0,0,0,0.685,0l0,0c8.091,0,14.813-1.369,22.157-4.046l151.933-59.13
		c0,0,0.685,0,0.685-0.685c10.083-4.73,15.437-14.128,15.437-25.519V53.471C759.378,39.342,749.917,32.62,741.203,32.62z
		 M224.284,499.807V124.737c0-1.369,0.685-4.73,4.73-6.037l145.21-56.454c1.369,0,1.991-0.685,3.361-0.685l0,0v379.116
		L224.284,499.807z M402.42,439.993v-379.8l153.924,59.815v379.8L402.42,439.993z M734.481,437.316c0,1.992-0.685,2.677-1.369,2.677
		l-151.248,59.13c0,0-0.685,0-0.685,0.684v-379.8l153.239-59.815v377.125H734.481z M616.844,348.56
		c3.36-6.037,11.452-8.091,16.805-4.046l19.482,11.453l17.489-27.573c3.361-6.037,11.453-7.407,17.49-4.046
		s7.406,11.453,4.046,17.49l-17.49,26.889l18.798,11.452c6.037,3.361,8.091,11.453,4.046,16.806
		c-1.992,4.046-6.723,6.037-10.769,6.037c-1.991,0-4.046-0.685-6.037-1.991l-19.482-11.453l-17.489,27.573
		c-2.677,4.046-6.723,6.037-10.769,6.037c-1.991,0-4.73-0.685-6.723-1.991c-6.037-3.361-7.406-11.452-4.045-17.489l17.489-26.889
		l-18.798-11.453C615.475,362.004,613.483,354.597,616.844,348.56z"/>
</g>
</svg>
