<?xml version="1.0" encoding="utf-8"?>
<!-- Generator: Adobe Illustrator 16.0.0, SVG Export Plug-In . SVG Version: 6.00 Build 0)  -->
<!DOCTYPE svg PUBLIC "-//W3C//DTD SVG 1.1//EN" "http://www.w3.org/Graphics/SVG/1.1/DTD/svg11.dtd">
<svg version="1.1"
	 id="Calque_1" xmlns:ns="http://ns.adobe.com/SaveForWeb/1.0/" xmlns:dc="http://purl.org/dc/elements/1.1/" xmlns:cc="http://creativecommons.org/ns#" xmlns:rdf="http://www.w3.org/1999/02/22-rdf-syntax-ns#" xmlns:svg="http://www.w3.org/2000/svg" xmlns:sodipodi="http://sodipodi.sourceforge.net/DTD/sodipodi-0.dtd" xmlns:inkscape="http://www.inkscape.org/namespaces/inkscape" sodipodi:docname="newLogo-atome.svg" inkscape:version="0.47 r22583"
	 xmlns="http://www.w3.org/2000/svg" xmlns:xlink="http://www.w3.org/1999/xlink" x="0px" y="0px" width="202px" height="156px"
	 viewBox="308.445 74.492 202 156" enable-background="new 308.445 74.492 202 156" xml:space="preserve">
<g id="g298" transform="translate(-310.83327,6.5901048)">
	<g id="g300">
		<path id="path302" fill="#FFFFFF" stroke="#FFFFFF" stroke-miterlimit="10" d="M645.623,168.857
			c-6.24,0-11.315-5.073-11.315-11.308c0-6.24,5.075-11.317,11.315-11.317c6.235,0,11.312,5.077,11.312,11.317
			C656.936,163.784,651.859,168.857,645.623,168.857z M645.623,149.489c-4.443,0-8.06,3.616-8.06,8.061
			c0,4.439,3.615,8.051,8.06,8.051c4.441,0,8.056-3.611,8.056-8.051C653.679,153.105,650.065,149.489,645.623,149.489
			L645.623,149.489z"/>
	</g>
	<g id="g304">
		<path id="path306" fill="#FFFFFF" stroke="#FFFFFF" stroke-miterlimit="10" d="M716.409,186.742
			c-5.829,0-10.571-4.741-10.571-10.568c0-5.829,4.742-10.572,10.571-10.572c5.828,0,10.57,4.743,10.57,10.572
			C726.98,182,722.238,186.742,716.409,186.742z M716.409,168.857c-4.032,0-7.314,3.282-7.314,7.316
			c0,4.032,3.282,7.313,7.314,7.313c4.031,0,7.313-3.281,7.313-7.313C723.724,172.139,720.441,168.857,716.409,168.857z"/>
	</g>
	<g id="g308">
		<path id="path310" fill="#FFFFFF" stroke="#FFFFFF" stroke-miterlimit="10" d="M743.975,218.789
			c-6.236,0-11.311-5.078-11.311-11.321c0-6.236,5.074-11.31,11.311-11.31c6.24,0,11.318,5.072,11.318,11.31
			C755.294,213.709,750.216,218.789,743.975,218.789z M743.975,199.414c-4.441,0-8.055,3.613-8.055,8.054
			c0,4.446,3.613,8.064,8.055,8.064c4.447,0,8.063-3.618,8.063-8.064C752.038,203.027,748.423,199.414,743.975,199.414
			L743.975,199.414z"/>
	</g>
	<g id="g312">
		<path id="path314" fill="#FFFFFF" stroke="#FFFFFF" stroke-miterlimit="10" d="M746.96,143.534c-4.598,0-8.332-3.739-8.332-8.335
			s3.734-8.335,8.332-8.335c4.596,0,8.334,3.74,8.334,8.335C755.294,139.794,751.555,143.534,746.96,143.534z M746.96,130.12
			c-2.799,0-5.076,2.279-5.076,5.079s2.277,5.079,5.076,5.079c2.801,0,5.078-2.278,5.078-5.079S749.76,130.12,746.96,130.12z"/>
	</g>
	<g id="g316">
		<path id="path318" fill="#FFFFFF" stroke="#FFFFFF" stroke-miterlimit="10" d="M801.354,149.489
			c-6.648,0-12.063-5.41-12.063-12.058c0-6.652,5.414-12.063,12.063-12.063c6.65,0,12.061,5.411,12.061,12.063
			C813.415,144.08,808.005,149.489,801.354,149.489z M801.354,128.625c-4.855,0-8.807,3.95-8.807,8.807
			c0,4.853,3.951,8.801,8.807,8.801c4.854,0,8.805-3.948,8.805-8.801C810.157,132.575,806.208,128.625,801.354,128.625z"/>
	</g>
	<g id="g320">
		<path id="path322" fill="#FFFFFF" stroke="#FFFFFF" stroke-miterlimit="10" d="M774.53,98.819c-3.363,0-6.1-2.735-6.1-6.098
			c0-3.363,2.736-6.099,6.1-6.099s6.098,2.735,6.098,6.099C780.628,96.083,777.893,98.819,774.53,98.819z M774.53,89.88
			c-1.566,0-2.842,1.274-2.842,2.841c0,1.565,1.275,2.842,2.842,2.842s2.842-1.275,2.842-2.842S776.096,89.88,774.53,89.88z"/>
	</g>
	<g id="g324">
		<path id="path326" fill="#FFFFFF" stroke="#FFFFFF" stroke-miterlimit="10" d="M783.471,183.765c-3.365,0-6.1-2.735-6.1-6.098
			s2.734-6.1,6.1-6.1c3.361,0,6.098,2.737,6.098,6.1C789.567,181.029,786.833,183.765,783.471,183.765z M783.471,174.825
			c-1.568,0-2.844,1.275-2.844,2.843c0,1.566,1.275,2.841,2.844,2.841c1.564,0,2.84-1.274,2.84-2.841
			C786.311,176.1,785.036,174.825,783.471,174.825z"/>
	</g>
	<g id="g328">
		<path id="path330" fill="#FFFFFF" stroke="#FFFFFF" stroke-miterlimit="10" d="M705.752,212.179l2.303-26.08l-34.982,6.087
			l20.854-34.759l-17.838-11.636l-30.96,12.846l-11.893-35.654l60.963,10.663l-0.072,1.612l-17.887,1.487l-0.134-1.622l11.586-0.965
			l-52.045-9.104l10.474,31.405l30.139-12.503l18.507,12.069l6.862-11.438l10.622,24.79l-16.96-11.063l-18.992,31.655l33.563-5.843
			l-2.169,24.598l22.018-16.224l-14.636-16.615l25.415-11.592l-22.75-30.707l28.742,0.781l22.291-40.986l-59.066-7.202
			l-3.078,41.587l-17.695-24.135l-17.838-20.059l1.215-1.082l17.886,20.117l15.136,20.635l2.882-38.887l63.137,7.698l-23.912,43.967
			l-26.396-0.719l20.96,28.3l60.967-27.804l-18.988,42.729l-35.223-3.065l-7.283-9.829l-23.729,10.821l13.276,15.078l19.347-14.255
			l-5.896,31.989l-13.685-15.537L705.752,212.179L705.752,212.179z M732.104,192.762l11.375,12.916l4.543-24.646L732.104,192.762
			L732.104,192.762z M749.63,173.905l33.334,2.9l16.773-37.743l-56.744,25.881L749.63,173.905L749.63,173.905z M696.129,156.92
			l12.508,8.156l-7.251-16.919L696.129,156.92z"/>
	</g>
	<g id="g332">
		<polygon id="polygon334" fill="#FFFFFF" stroke="#FFFFFF" stroke-miterlimit="10" points="678.688,191.745 645.047,158.125 
			646.198,156.974 679.731,190.503 706.951,209.618 743.675,206.682 782.784,177.165 800.427,127.186 769.663,93.493 708.859,86.08 
			665.328,83.868 635.029,115.638 633.853,114.516 664.666,82.204 708.999,84.458 770.458,91.95 802.282,126.808 784.159,178.17 
			783.962,178.318 744.276,208.266 706.493,211.288 		"/>
	</g>
	<g id="g336">
		<path id="path338" fill="#FFFFFF" stroke="#FFFFFF" stroke-miterlimit="10" d="M726.844,137.431c0,8.231-6.672,14.9-14.902,14.9
			c-8.233,0-14.902-6.669-14.902-14.9c0-8.234,6.669-14.908,14.902-14.908C720.172,122.523,726.844,129.197,726.844,137.431"/>
	</g>
	<g id="g340">
		<path id="path342" fill="#FFFFFF" stroke="#FFFFFF" stroke-miterlimit="10" d="M729.823,85.271
			c0-5.766-4.675-10.431-10.435-10.431c-5.759,0-10.431,4.666-10.431,10.431c0,5.76,4.672,10.433,10.431,10.433
			C725.148,95.705,729.823,91.031,729.823,85.271"/>
		<path id="path344" fill="#FFFFFF" stroke="#FFFFFF" stroke-miterlimit="10" d="M719.389,97.333c-6.649,0-12.06-5.41-12.06-12.061
			s5.409-12.06,12.06-12.06s12.063,5.409,12.063,12.06S726.039,97.333,719.389,97.333z M719.389,76.469
			c-4.853,0-8.803,3.947-8.803,8.803s3.95,8.805,8.803,8.805c4.856,0,8.807-3.949,8.807-8.805
			C728.195,80.417,724.245,76.469,719.389,76.469z"/>
	</g>
	<g id="g346">
		<path id="path348" fill="#FFFFFF" stroke="#FFFFFF" stroke-miterlimit="10" d="M719.389,97.333c-6.649,0-12.06-5.41-12.06-12.061
			s5.409-12.06,12.06-12.06s12.063,5.409,12.063,12.06S726.039,97.333,719.389,97.333z M719.389,76.469
			c-4.853,0-8.803,3.947-8.803,8.803s3.95,8.805,8.803,8.805c4.856,0,8.807-3.949,8.807-8.805
			C728.195,80.417,724.245,76.469,719.389,76.469z"/>
	</g>
	<g id="g350">
		<path id="path352" fill="#FFFFFF" stroke="#FFFFFF" stroke-miterlimit="10" d="M658.29,83.036c0-3.697,3.002-6.704,6.707-6.704
			c3.701,0,6.703,3.006,6.703,6.704c0,3.702-3.002,6.708-6.703,6.708C661.292,89.743,658.29,86.738,658.29,83.036"/>
		<path id="path354" fill="#FFFFFF" stroke="#FFFFFF" stroke-miterlimit="10" d="M664.997,91.372c-4.597,0-8.335-3.739-8.335-8.336
			c0-4.594,3.738-8.332,8.335-8.332c4.596,0,8.332,3.738,8.332,8.332C673.329,87.631,669.593,91.372,664.997,91.372z M664.997,77.96
			c-2.803,0-5.079,2.276-5.079,5.075c0,2.801,2.276,5.079,5.079,5.079c2.799,0,5.074-2.278,5.074-5.079
			C670.072,80.237,667.796,77.959,664.997,77.96L664.997,77.96z"/>
	</g>
	<g id="g356">
		<path id="path358" fill="#FFFFFF" stroke="#FFFFFF" stroke-miterlimit="10" d="M658.29,83.036c0-3.697,3.002-6.704,6.707-6.704
			c3.701,0,6.703,3.006,6.703,6.704c0,3.702-3.002,6.708-6.703,6.708C661.292,89.743,658.29,86.738,658.29,83.036z"/>
		<path id="path360" fill="#FFFFFF" stroke="#FFFFFF" stroke-miterlimit="10" d="M664.997,91.372c-4.597,0-8.335-3.739-8.335-8.336
			c0-4.594,3.738-8.332,8.335-8.332c4.596,0,8.332,3.738,8.332,8.332C673.329,87.631,669.593,91.372,664.997,91.372z M664.997,77.96
			c-2.803,0-5.079,2.276-5.079,5.075c0,2.801,2.276,5.079,5.079,5.079c2.799,0,5.074-2.278,5.074-5.079
			C670.072,80.237,667.796,77.959,664.997,77.96L664.997,77.96z"/>
	</g>
	<g id="g362">
		<path id="path364" fill="#FFFFFF" stroke="#FFFFFF" stroke-miterlimit="10" d="M694.059,103.153c0,2.469-2.004,4.471-4.472,4.471
			c-2.476,0-4.476-2.002-4.476-4.471c0-2.465,2-4.47,4.476-4.47C692.055,98.683,694.059,100.688,694.059,103.153"/>
	</g>
	<g id="g366">
		<path id="path368" fill="#FFFFFF" stroke="#FFFFFF" stroke-miterlimit="10" d="M689.587,109.252c-3.365,0-6.104-2.737-6.104-6.101
			s2.737-6.098,6.104-6.098c3.364,0,6.1,2.734,6.1,6.098C695.687,106.516,692.95,109.252,689.587,109.252z M689.587,100.311
			c-1.571,0-2.848,1.275-2.848,2.842c0,1.568,1.275,2.843,2.848,2.843c1.566,0,2.843-1.274,2.843-2.843
			C692.43,101.586,691.154,100.311,689.587,100.311z"/>
	</g>
	<g id="g370">
		<path id="path372" fill="#FFFFFF" stroke="#FFFFFF" stroke-miterlimit="10" d="M643.387,124.02c0,4.937-4.004,8.943-8.945,8.943
			c-4.933,0-8.939-4.007-8.939-8.943s4.008-8.943,8.939-8.943C639.383,115.077,643.387,119.083,643.387,124.02"/>
	</g>
	<g id="g374">
		<path id="path376" fill="#FFFFFF" stroke="#FFFFFF" stroke-miterlimit="10" d="M634.441,134.591
			c-5.826,0-10.567-4.742-10.567-10.571s4.741-10.571,10.567-10.571c5.829,0,10.574,4.742,10.574,10.571
			S640.271,134.591,634.441,134.591z M634.441,116.706c-4.033,0-7.312,3.282-7.312,7.314s3.277,7.313,7.312,7.313
			c4.035,0,7.317-3.281,7.317-7.313S638.477,116.706,634.441,116.706z"/>
	</g>
	<g id="g378">
		<path id="path380" fill="#FFFFFF" stroke="#FFFFFF" stroke-miterlimit="10" d="M655.307,157.549c0,5.349-4.335,9.679-9.684,9.679
			c-5.351,0-9.688-4.33-9.688-9.679c0-5.353,4.338-9.688,9.688-9.688C650.972,147.861,655.307,152.197,655.307,157.549"/>
		<path id="path382" fill="#FFFFFF" stroke="#FFFFFF" stroke-miterlimit="10" d="M645.623,168.857
			c-6.24,0-11.315-5.073-11.315-11.308c0-6.24,5.075-11.317,11.315-11.317c6.235,0,11.312,5.077,11.312,11.317
			C656.936,163.784,651.859,168.857,645.623,168.857z M645.623,149.489c-4.443,0-8.06,3.616-8.06,8.061
			c0,4.439,3.615,8.051,8.06,8.051c4.441,0,8.056-3.611,8.056-8.051C653.679,153.105,650.065,149.489,645.623,149.489
			L645.623,149.489z"/>
	</g>
	<g id="g384">
		<path id="path386" fill="#FFFFFF" stroke="#FFFFFF" stroke-miterlimit="10" d="M680.641,140.408c0,2.472-2,4.468-4.468,4.468
			s-4.472-1.996-4.472-4.468c0-2.464,2.004-4.471,4.472-4.471S680.641,137.943,680.641,140.408"/>
	</g>
	<g id="g388">
		<path id="path390" fill="#FFFFFF" stroke="#FFFFFF" stroke-miterlimit="10" d="M676.173,146.504c-3.365,0-6.102-2.735-6.102-6.098
			s2.735-6.1,6.102-6.1c3.361,0,6.097,2.737,6.097,6.1C682.27,143.77,679.533,146.504,676.173,146.504z M676.173,137.564
			c-1.568,0-2.844,1.275-2.844,2.843c0,1.566,1.274,2.84,2.844,2.84c1.563,0,2.84-1.273,2.84-2.84S677.737,137.564,676.173,137.564z
			"/>
	</g>
	<g id="g392">
		<path id="path394" fill="#FFFFFF" stroke="#FFFFFF" stroke-miterlimit="10" d="M725.352,176.173c0,4.94-4.007,8.94-8.941,8.94
			c-4.936,0-8.942-4-8.942-8.94c0-4.938,4.007-8.944,8.942-8.944C721.345,167.229,725.352,171.236,725.352,176.173"/>
		<path id="path396" fill="#FFFFFF" stroke="#FFFFFF" stroke-miterlimit="10" d="M716.409,186.742
			c-5.829,0-10.571-4.741-10.571-10.568c0-5.829,4.742-10.572,10.571-10.572c5.828,0,10.57,4.743,10.57,10.572
			C726.98,182,722.238,186.742,716.409,186.742z M716.409,168.857c-4.032,0-7.314,3.282-7.314,7.316
			c0,4.032,3.282,7.313,7.314,7.313c4.031,0,7.313-3.281,7.313-7.313C723.724,172.139,720.441,168.857,716.409,168.857z"/>
	</g>
	<g id="g398">
		<path id="path400" fill="#FFFFFF" stroke="#FFFFFF" stroke-miterlimit="10" d="M779.001,92.721c0,2.466-2,4.47-4.471,4.47
			s-4.471-2.004-4.471-4.47c0-2.464,2-4.471,4.471-4.471S779.001,90.257,779.001,92.721"/>
		<path id="path402" fill="#FFFFFF" stroke="#FFFFFF" stroke-miterlimit="10" d="M774.53,98.819c-3.363,0-6.1-2.735-6.1-6.098
			c0-3.363,2.736-6.099,6.1-6.099s6.098,2.735,6.098,6.099C780.628,96.083,777.893,98.819,774.53,98.819z M774.53,89.88
			c-1.566,0-2.842,1.274-2.842,2.841c0,1.565,1.275,2.842,2.842,2.842s2.842-1.275,2.842-2.842S776.096,89.88,774.53,89.88z"/>
	</g>
	<g id="g404">
		<path id="path406" fill="#FFFFFF" stroke="#FFFFFF" stroke-miterlimit="10" d="M740.255,135.199c0-3.708,3.01-6.708,6.705-6.708
			c3.707,0,6.707,2.999,6.707,6.708c0,3.7-3,6.707-6.707,6.707C743.264,141.906,740.255,138.899,740.255,135.199"/>
		<path id="path408" fill="#FFFFFF" stroke="#FFFFFF" stroke-miterlimit="10" d="M746.96,143.534c-4.598,0-8.332-3.739-8.332-8.335
			s3.734-8.335,8.332-8.335c4.596,0,8.334,3.74,8.334,8.335C755.294,139.794,751.555,143.534,746.96,143.534z M746.96,130.12
			c-2.799,0-5.076,2.279-5.076,5.079s2.277,5.079,5.076,5.079c2.801,0,5.078-2.278,5.078-5.079S749.76,130.12,746.96,130.12z"/>
	</g>
	<g id="g410">
		<path id="path412" fill="#FFFFFF" stroke="#FFFFFF" stroke-miterlimit="10" d="M811.786,137.431
			c0-5.764-4.674-10.436-10.434-10.436c-5.762,0-10.434,4.672-10.434,10.436c0,5.758,4.672,10.43,10.434,10.43
			C807.112,147.861,811.786,143.189,811.786,137.431"/>
		<path id="path414" fill="#FFFFFF" stroke="#FFFFFF" stroke-miterlimit="10" d="M801.354,149.489
			c-6.648,0-12.063-5.41-12.063-12.058c0-6.652,5.414-12.063,12.063-12.063c6.65,0,12.061,5.411,12.061,12.063
			C813.415,144.08,808.005,149.489,801.354,149.489z M801.354,128.625c-4.855,0-8.807,3.95-8.807,8.807
			c0,4.853,3.951,8.801,8.807,8.801c4.854,0,8.805-3.948,8.805-8.801C810.157,132.575,806.208,128.625,801.354,128.625z"/>
	</g>
	<g id="g416">
		<path id="path418" fill="#FFFFFF" stroke="#FFFFFF" stroke-miterlimit="10" d="M787.938,177.667c0,2.465-2.004,4.469-4.467,4.469
			c-2.473,0-4.473-2.004-4.473-4.469c0-2.471,2-4.472,4.473-4.472C785.936,173.196,787.938,175.197,787.938,177.667"/>
		<path id="path420" fill="#FFFFFF" stroke="#FFFFFF" stroke-miterlimit="10" d="M783.471,183.765c-3.365,0-6.1-2.735-6.1-6.098
			s2.734-6.1,6.1-6.1c3.361,0,6.098,2.737,6.098,6.1C789.567,181.029,786.833,183.765,783.471,183.765z M783.471,174.825
			c-1.568,0-2.844,1.275-2.844,2.843c0,1.566,1.275,2.841,2.844,2.841c1.564,0,2.84-1.274,2.84-2.841
			C786.311,176.1,785.036,174.825,783.471,174.825z"/>
	</g>
	<g id="g422">
		<path id="path424" fill="#FFFFFF" stroke="#FFFFFF" stroke-miterlimit="10" d="M753.667,174.685c0,2.468-2,4.472-4.473,4.472
			c-2.469,0-4.469-2.004-4.469-4.472c0-2.469,2-4.471,4.469-4.471C751.667,170.213,753.667,172.215,753.667,174.685"/>
		<path id="path426" fill="#FFFFFF" stroke="#FFFFFF" stroke-miterlimit="10" d="M749.194,180.784c-3.361,0-6.098-2.735-6.098-6.1
			s2.736-6.101,6.098-6.101c3.365,0,6.1,2.736,6.1,6.101S752.559,180.784,749.194,180.784z M749.194,171.842
			c-1.564,0-2.84,1.274-2.84,2.843s1.275,2.843,2.84,2.843c1.568,0,2.844-1.274,2.844-2.843S750.762,171.842,749.194,171.842z"/>
	</g>
	<g id="g428">
		<path id="path430" fill="#FFFFFF" stroke="#FFFFFF" stroke-miterlimit="10" d="M749.194,180.784c-3.361,0-6.098-2.735-6.098-6.1
			s2.736-6.101,6.098-6.101c3.365,0,6.1,2.736,6.1,6.101S752.559,180.784,749.194,180.784z M749.194,171.842
			c-1.564,0-2.84,1.274-2.84,2.843s1.275,2.843,2.84,2.843c1.568,0,2.844-1.274,2.844-2.843S750.762,171.842,749.194,171.842z"/>
	</g>
	<g id="g432">
		<path id="path434" fill="#FFFFFF" stroke="#FFFFFF" stroke-miterlimit="10" d="M753.667,207.467c0,5.353-4.338,9.692-9.691,9.692
			c-5.348,0-9.684-4.341-9.684-9.692c0-5.349,4.336-9.682,9.684-9.682C749.329,197.786,753.667,202.119,753.667,207.467"/>
		<path id="path436" fill="#FFFFFF" stroke="#FFFFFF" stroke-miterlimit="10" d="M743.975,218.789
			c-6.236,0-11.311-5.078-11.311-11.321c0-6.236,5.074-11.31,11.311-11.31c6.24,0,11.318,5.072,11.318,11.31
			C755.294,213.709,750.216,218.789,743.975,218.789z M743.975,199.414c-4.441,0-8.055,3.613-8.055,8.054
			c0,4.446,3.613,8.064,8.055,8.064c4.447,0,8.063-3.618,8.063-8.064C752.038,203.027,748.423,199.414,743.975,199.414
			L743.975,199.414z"/>
	</g>
	<g id="g438">
		<path id="path440" fill="#FFFFFF" stroke="#FFFFFF" stroke-miterlimit="10" d="M683.627,191.079c0,2.469-2.007,4.473-4.473,4.473
			c-2.474,0-4.472-2.004-4.472-4.473c0-2.468,1.998-4.47,4.472-4.47C681.62,186.609,683.627,188.611,683.627,191.079"/>
		<path id="path442" fill="#FFFFFF" stroke="#FFFFFF" stroke-miterlimit="10" d="M679.155,197.179c-3.363,0-6.1-2.736-6.1-6.101
			c0-3.363,2.735-6.099,6.1-6.099c3.365,0,6.101,2.735,6.101,6.099C685.255,194.443,682.521,197.179,679.155,197.179z
			 M679.155,188.237c-1.566,0-2.843,1.275-2.843,2.842c0,1.567,1.275,2.844,2.843,2.844c1.568,0,2.845-1.275,2.845-2.844
			C681.999,189.513,680.724,188.237,679.155,188.237z"/>
	</g>
	<g id="g444">
		<path id="path446" fill="#FFFFFF" stroke="#FFFFFF" stroke-miterlimit="10" d="M679.155,197.179c-3.363,0-6.1-2.736-6.1-6.101
			c0-3.363,2.735-6.099,6.1-6.099c3.365,0,6.101,2.735,6.101,6.099C685.255,194.443,682.521,197.179,679.155,197.179z
			 M679.155,188.237c-1.566,0-2.843,1.275-2.843,2.842c0,1.567,1.275,2.844,2.843,2.844c1.568,0,2.845-1.275,2.845-2.844
			C681.999,189.513,680.724,188.237,679.155,188.237z"/>
	</g>
	<g id="g448">
		<path id="path450" fill="#FFFFFF" stroke="#FFFFFF" stroke-miterlimit="10" d="M706.722,218.789c-4.595,0-8.335-3.739-8.335-8.336
			c0-4.596,3.74-8.336,8.335-8.336c4.596,0,8.333,3.74,8.333,8.336C715.055,215.049,711.317,218.789,706.722,218.789z
			 M706.722,205.374c-2.802,0-5.078,2.279-5.078,5.079c0,2.801,2.276,5.079,5.078,5.079c2.799,0,5.076-2.278,5.076-5.079
			C711.798,207.653,709.521,205.374,706.722,205.374z"/>
	</g>
	<g id="g452">
		<path id="path454" fill="#FFFFFF" stroke="#FFFFFF" stroke-miterlimit="10" d="M700.015,210.453c0-3.703,3.003-6.707,6.707-6.707
			c3.702,0,6.704,3.004,6.704,6.707c0,3.698-3.002,6.707-6.704,6.707C703.018,217.16,700.015,214.151,700.015,210.453"/>
	</g>
</g>
</svg>
